<svg width="245" height="245" viewBox="0 0 245 245" fill="none" xmlns="http://www.w3.org/2000/svg">
<path d="M122.642 211.401C171.598 211.401 211.284 171.785 211.284 122.917C211.284 74.0479 171.598 34.432 122.642 34.432C73.6864 34.432 34 74.0479 34 122.917C34 171.785 73.6864 211.401 122.642 211.401Z" fill="#DFE5ED"/>
<path d="M123.94 96.0497H122.223C116.227 96.0497 111.366 100.902 111.366 106.888V122.345C111.366 128.331 116.227 133.184 122.223 133.184H123.94C129.937 133.184 134.798 128.331 134.798 122.345V106.888C134.798 100.902 129.937 96.0497 123.94 96.0497Z" fill="#34566A"/>
<path d="M123.074 140.267C118.497 140.259 114.11 138.44 110.873 135.209C107.637 131.979 105.815 127.6 105.806 123.031C105.806 122.814 105.892 122.607 106.046 122.454C106.199 122.301 106.407 122.215 106.624 122.215C106.841 122.215 107.049 122.301 107.202 122.454C107.355 122.607 107.441 122.814 107.441 123.031C107.446 127.168 109.094 131.135 112.025 134.06C114.955 136.985 118.929 138.631 123.074 138.635C125.152 138.73 127.228 138.392 129.169 137.642C131.11 136.891 132.872 135.745 134.345 134.277C135.817 132.809 136.967 131.051 137.72 129.114C138.474 127.178 138.815 125.106 138.722 123.031C138.722 122.814 138.808 122.607 138.962 122.454C139.115 122.301 139.323 122.215 139.54 122.215C139.757 122.215 139.964 122.301 140.118 122.454C140.271 122.607 140.357 122.814 140.357 123.031C140.357 133.167 133.244 140.251 123.074 140.267Z" fill="#34566A"/>
<path d="M123.891 139.451H122.256V147.906H123.891V139.451Z" fill="#34566A"/>
<path d="M133.31 148.347H112.854C112.637 148.347 112.429 148.261 112.276 148.108C112.122 147.955 112.036 147.747 112.036 147.531C112.036 147.315 112.122 147.107 112.276 146.954C112.429 146.801 112.637 146.715 112.854 146.715H133.31C133.527 146.715 133.735 146.801 133.888 146.954C134.041 147.107 134.127 147.315 134.127 147.531C134.123 147.746 134.036 147.951 133.883 148.103C133.731 148.256 133.525 148.343 133.31 148.347Z" fill="#34566A"/>
<path d="M106.019 102.807C105.921 103.019 104.678 102.579 103.206 101.958C101.735 101.338 100.557 100.734 100.623 100.506C100.688 100.277 102.029 100.506 103.533 101.175C105.038 101.844 106.019 102.595 106.019 102.807Z" fill="#34566A"/>
<path d="M112.559 94.0582C112.38 94.2052 111.317 93.0789 110.188 91.5609C109.06 90.0429 108.308 88.6881 108.553 88.5576C108.799 88.427 109.796 89.5369 110.924 91.0549C112.053 92.5729 112.723 93.9277 112.559 94.0582Z" fill="#34566A"/>
<path d="M123.139 90.9243C122.894 90.9243 122.73 89.5042 122.746 87.6598C122.763 85.8153 122.975 84.3953 123.204 84.3953C123.771 86.4961 123.771 88.7092 123.204 90.81L123.139 90.9243Z" fill="#34566A"/>
<path d="M136.744 88.6229C136.94 88.7534 136.433 89.9613 135.484 91.2345C134.536 92.5076 133.49 93.3238 133.326 93.1605C133.163 92.9973 133.866 91.9527 134.798 90.7121C135.73 89.4716 136.531 88.5086 136.744 88.6229Z" fill="#34566A"/>
<path d="M145.884 99.6733C145.999 99.8855 144.903 100.718 143.448 101.55C141.992 102.383 140.717 102.872 140.603 102.677C140.488 102.481 141.567 101.632 143.023 100.8C144.478 99.9671 145.77 99.4774 145.884 99.6733Z" fill="#34566A"/>
<circle cx="123" cy="122" r="108.5" stroke="#D9D9D9"/>
<circle cx="122.5" cy="122.5" r="122" stroke="#D9D9D9"/>
</svg>
